<?xml version="1.0" encoding="UTF-8" standalone="no"?>
<!DOCTYPE svg PUBLIC "-//W3C//DTD SVG 1.1 Tiny//EN" "http://www.w3.org/Graphics/SVG/1.1/DTD/svg11-tiny.dtd">
<svg xmlns="http://www.w3.org/2000/svg" xmlns:xlink="http://www.w3.org/1999/xlink" baseProfile="tiny" height="96px" version="1.1" viewBox="0 0 96 96" width="96px" x="0px" y="0px">
<g>
<rect fill="none" height="96" width="96"/>
</g>
<g>
<path d="M88.023,49c0,29.633-10.364,40-40,40c-29.635,0-40-10.367-40-40c0-29.634,10.366-40,40-40   C77.659,9,88.023,19.365,88.023,49z" fill-opacity="0.4" stroke-opacity="0.4"/>
</g>
<g>
<g>
<linearGradient gradientUnits="userSpaceOnUse" id="GRAY_5_1_" x1="47.9995" x2="47.9995" y1="8.0107" y2="87.9897">
<stop offset="0" style="stop-color:#DDDDDD"/>
<stop offset="0.0364" style="stop-color:#DDDDDD"/>
<stop offset="0.4616" style="stop-color:#BFBFC1"/>
<stop offset="1" style="stop-color:#949499"/>
</linearGradient>
<path d="M8,47.989c0,29.633,10.365,40,40,40    c29.637,0,40-10.367,40-40c0-28.985-9.926-39.53-38.091-39.979h-3.817C17.928,8.459,8,19.004,8,47.989z" fill="url(#GRAY_5_1_)" fill-rule="evenodd"/>
<linearGradient gradientUnits="userSpaceOnUse" id="HIGHLIGHT_GRA5_1_" x1="47.9995" x2="47.9995" y1="8" y2="88.0005">
<stop offset="0" style="stop-color:#FFFFFF"/>
<stop offset="0.0364" style="stop-color:#FFFFFF"/>
<stop offset="0.3366" style="stop-color:#E1E1E3"/>
<stop offset="0.9874" style="stop-color:#96969A"/>
<stop offset="1" style="stop-color:#949499"/>
</linearGradient>
<path d="M48,8C18.365,8,8,18.365,8,48    c0,29.633,10.365,40,40,40c29.637,0,40-10.367,40-40C88,18.365,77.637,8,48,8z M48,87.023C18.842,87.023,9,77.176,9,48    S18.842,8.977,48,8.977S87,18.824,87,48S77.158,87.023,48,87.023z" fill="url(#HIGHLIGHT_GRA5_1_)" fill-opacity="0.25" stroke-opacity="0.25"/>
</g>
<g display="none">
<linearGradient gradientUnits="userSpaceOnUse" id="GRAY_4_1_" x1="47.9995" x2="47.9995" y1="8.0107" y2="87.9897">
<stop offset="0" style="stop-color:#E0E0E0"/>
<stop offset="0.0364" style="stop-color:#E0E0E0"/>
<stop offset="0.3262" style="stop-color:#D6D6D6"/>
<stop offset="0.8148" style="stop-color:#BCBCBC"/>
<stop offset="1" style="stop-color:#B0B0B0"/>
</linearGradient>
<path d="M8,47.989    c0,29.633,10.365,40,40,40c29.637,0,40-10.367,40-40c0-28.985-9.926-39.53-38.091-39.979h-3.817C17.928,8.459,8,19.004,8,47.989z" display="inline" fill="url(#GRAY_4_1_)" fill-rule="evenodd"/>
<linearGradient gradientUnits="userSpaceOnUse" id="HIGHLIGHT_GRA4_2_" x1="47.9995" x2="47.9995" y1="8" y2="88.0005">
<stop offset="0" style="stop-color:#E8E8E8"/>
<stop offset="0.0364" style="stop-color:#E8E8E8"/>
<stop offset="0.2978" style="stop-color:#DEDEDE"/>
<stop offset="0.7385" style="stop-color:#C4C4C4"/>
<stop offset="1" style="stop-color:#B1B1B1"/>
</linearGradient>
<path d="M48,8C18.365,8,8,18.365,8,48    c0,29.633,10.365,40,40,40c29.637,0,40-10.367,40-40C88,18.365,77.637,8,48,8z M48,87.023C18.842,87.023,9,77.176,9,48    S18.842,8.977,48,8.977S87,18.824,87,48S77.158,87.023,48,87.023z" display="inline" fill="url(#HIGHLIGHT_GRA4_2_)"/>
</g>
<g display="none">
<linearGradient gradientUnits="userSpaceOnUse" id="GRAY_3_1_" x1="47.9995" x2="47.9995" y1="8.0107" y2="87.9897">
<stop offset="0" style="stop-color:#E9E9E9"/>
<stop offset="0.0364" style="stop-color:#E9E9E9"/>
<stop offset="0.3218" style="stop-color:#DFDFDF"/>
<stop offset="0.8028" style="stop-color:#C5C5C5"/>
<stop offset="1" style="stop-color:#B8B8B8"/>
</linearGradient>
<path d="M8,47.989    c0,29.633,10.365,40,40,40c29.637,0,40-10.367,40-40c0-28.985-9.926-39.53-38.091-39.979h-3.817C17.928,8.459,8,19.004,8,47.989z" display="inline" fill="url(#GRAY_3_1_)" fill-rule="evenodd"/>
<linearGradient gradientUnits="userSpaceOnUse" id="HIGHLIGHT_GRA3_2_" x1="47.9995" x2="47.9995" y1="8" y2="88.0005">
<stop offset="0" style="stop-color:#EFEFEF"/>
<stop offset="0.0364" style="stop-color:#EFEFEF"/>
<stop offset="0.3133" style="stop-color:#E5E5E5"/>
<stop offset="0.7799" style="stop-color:#CBCBCB"/>
<stop offset="1" style="stop-color:#BCBCBC"/>
</linearGradient>
<path d="M48,8C18.365,8,8,18.365,8,48    c0,29.633,10.365,40,40,40c29.637,0,40-10.367,40-40C88,18.365,77.637,8,48,8z M48,87.023C18.842,87.023,9,77.176,9,48    S18.842,8.977,48,8.977S87,18.824,87,48S77.158,87.023,48,87.023z" display="inline" fill="url(#HIGHLIGHT_GRA3_2_)"/>
</g>
<g display="none">
<linearGradient gradientUnits="userSpaceOnUse" id="GRAY_2_1_" x1="47.9995" x2="47.9995" y1="8.0107" y2="87.9897">
<stop offset="0" style="stop-color:#EEEEEE"/>
<stop offset="0.0364" style="stop-color:#EEEEEE"/>
<stop offset="0.3262" style="stop-color:#E4E4E4"/>
<stop offset="0.8148" style="stop-color:#CACACA"/>
<stop offset="1" style="stop-color:#BEBEBE"/>
</linearGradient>
<path d="M8,47.989    c0,29.633,10.365,40,40,40c29.637,0,40-10.367,40-40c0-28.985-9.926-39.53-38.091-39.979h-3.817C17.928,8.459,8,19.004,8,47.989z" display="inline" fill="url(#GRAY_2_1_)" fill-rule="evenodd"/>
<linearGradient gradientUnits="userSpaceOnUse" id="HIGHLIGHT_GRA2_1_" x1="47.9995" x2="47.9995" y1="8" y2="88.0005">
<stop offset="0" style="stop-color:#F2F2F2"/>
<stop offset="0.0364" style="stop-color:#F2F2F2"/>
<stop offset="0.3133" style="stop-color:#E8E8E8"/>
<stop offset="0.7799" style="stop-color:#CECECE"/>
<stop offset="1" style="stop-color:#BFBFBF"/>
</linearGradient>
<path d="M48,8C18.365,8,8,18.365,8,48    c0,29.633,10.365,40,40,40c29.637,0,40-10.367,40-40C88,18.365,77.637,8,48,8z M48,87.023C18.842,87.023,9,77.176,9,48    S18.842,8.977,48,8.977S87,18.824,87,48S77.158,87.023,48,87.023z" display="inline" fill="url(#HIGHLIGHT_GRA2_1_)"/>
</g>
<g display="none">
<linearGradient gradientUnits="userSpaceOnUse" id="GRAY_1_1_" x1="47.9995" x2="47.9995" y1="8.0107" y2="87.9897">
<stop offset="0" style="stop-color:#F9F9F9"/>
<stop offset="0.0364" style="stop-color:#F9F9F9"/>
<stop offset="0.2102" style="stop-color:#EFEFEF"/>
<stop offset="0.5042" style="stop-color:#D6D6D5"/>
<stop offset="0.8303" style="stop-color:#B2B2B0"/>
<stop offset="1" style="stop-color:#ABABA8"/>
</linearGradient>
<path d="M8,47.989    c0,29.633,10.365,40,40,40c29.637,0,40-10.367,40-40c0-28.985-9.926-39.53-38.091-39.979h-3.817C17.928,8.459,8,19.004,8,47.989z" display="inline" fill="url(#GRAY_1_1_)" fill-rule="evenodd"/>
<linearGradient gradientUnits="userSpaceOnUse" id="HIGHLIGHT_GRA1_1_" x1="47.9995" x2="47.9995" y1="8" y2="88.0005">
<stop offset="0" style="stop-color:#FCFCFC"/>
<stop offset="0.0364" style="stop-color:#FCFCFC"/>
<stop offset="0.2262" style="stop-color:#F3F3F2"/>
<stop offset="0.5471" style="stop-color:#DAD9D8"/>
<stop offset="0.9576" style="stop-color:#B2B0AD"/>
<stop offset="1" style="stop-color:#ADABA8"/>
</linearGradient>
<path d="M48,8C18.365,8,8,18.365,8,48    c0,29.633,10.365,40,40,40c29.637,0,40-10.367,40-40C88,18.365,77.637,8,48,8z M48,87.023C18.842,87.023,9,77.176,9,48    S18.842,8.977,48,8.977S87,18.824,87,48S77.158,87.023,48,87.023z" display="inline" fill="url(#HIGHLIGHT_GRA1_1_)"/>
</g>
</g>
<g>
<linearGradient gradientUnits="userSpaceOnUse" id="VIOLET_1_1_" x1="47.9995" x2="47.9995" y1="9.7622" y2="89.7412">
<stop offset="0" style="stop-color:#7CC040"/>
<stop offset="0.0364" style="stop-color:#7CC040"/>
<stop offset="0.2088" style="stop-color:#77B83D"/>
<stop offset="0.4751" style="stop-color:#69A236"/>
<stop offset="0.8004" style="stop-color:#527F2B"/>
<stop offset="1" style="stop-color:#426623"/>
</linearGradient>
<path d="M8,47.989c0,29.633,10.365,40,40,40c29.637,0,40-10.367,40-40   c0-28.985-9.926-39.53-38.091-39.979h-3.817C17.928,8.459,8,19.004,8,47.989z" fill="url(#VIOLET_1_1_)"/>
<linearGradient gradientUnits="userSpaceOnUse" id="HIGHLIGHT_VIO1_2_" x1="47.9995" x2="47.9995" y1="8.2554" y2="87.5043">
<stop offset="0" style="stop-color:#FFFFFF"/>
<stop offset="0.0364" style="stop-color:#FFFFFF"/>
<stop offset="1" style="stop-color:#4A1F8C"/>
</linearGradient>
<path d="M48,8C18.365,8,8,18.365,8,48   c0,29.632,10.365,40,40,40c29.637,0,40-10.367,40-40C88,18.365,77.637,8,48,8z M48,87.023C18.842,87.023,9,77.176,9,48   C9,18.824,18.842,8.977,48,8.977S87,18.824,87,48C87,77.176,77.158,87.023,48,87.023z" fill="url(#HIGHLIGHT_VIO1_2_)" fill-opacity="0.25" stroke-opacity="0.25"/>
<path d="M48.917,87.979c28.807-0.216,38.997-10.591,39.079-39.641C86.351,69.224,69.744,86.039,48.917,87.979z" fill-opacity="0.05" stroke-opacity="0.05"/>
<path d="M53.815,87.835c23.416-1.267,32.839-10.767,34.046-34.28C84.415,70.685,70.918,84.272,53.815,87.835z" fill-opacity="0.07" stroke-opacity="0.07"/>
<path d="M57.172,87.584c19.85-1.884,28.591-10.675,30.438-30.581C83.435,71.7,71.851,83.34,57.172,87.584z" fill-opacity="0.1" stroke-opacity="0.1"/>
<linearGradient gradientUnits="userSpaceOnUse" id="SVGID_1_" x1="68.1074" x2="68.1074" y1="48.6113" y2="88.8687">
<stop offset="0" style="stop-color:#3FA9F5"/>
<stop offset="0.0364" style="stop-color:#3FA9F5"/>
<stop offset="0.2062" style="stop-color:#3DA4ED"/>
<stop offset="0.4684" style="stop-color:#3898D7"/>
<stop offset="0.7886" style="stop-color:#3084B4"/>
<stop offset="1" style="stop-color:#297499"/>
</linearGradient>
<path d="M87.997,47.729h-0.044c0.001,0.091,0.007,0.18,0.007,0.271c0,21.996-17.776,39.838-39.745,39.954   v0.032C77.684,87.936,88,77.549,88,47.989C88,47.901,87.997,47.817,87.997,47.729z" fill="url(#SVGID_1_)"/>
</g>
<g>
<path d="M50.253,40.165c0.012-0.086,0.038-0.312,0.021-0.553l-1.189-16.233c0-1.433-0.983-2.879-3.181-2.879h-1.023   c-0.378,0-1.53,0-2.389,0.861c-0.199,0.199-0.488,0.55-0.655,1.028c-0.402-1.045-1.41-1.889-2.984-1.889h-1.023   c-0.91,0-1.737,0.327-2.332,0.921c-0.338,0.34-0.589,0.759-0.726,1.187c-0.298-1.138-1.284-2.107-3.083-2.107h-1.024   c-0.378,0-1.529,0-2.39,0.863c-0.298,0.298-0.796,0.939-0.785,1.835l-1.191,16.388c-0.009,0.099-0.009,0.099-0.009,2.178   c0,2.131,1.724,3.865,3.843,3.865h3.203c-0.408,18.081-0.354,27.631,0.146,29.108c0.216,1.577,1.671,3.763,3.837,3.763h2.048   c2.125,0,3.487-2.017,3.717-3.3c0.79-2.19,0.893-11.864,0.315-29.571h3.041c1.028,0,1.994-0.404,2.72-1.137   c0.726-0.731,1.124-1.704,1.123-2.744L50.253,40.165z" fill-opacity="0.05" stroke-opacity="0.05"/>
<path d="M49.758,40.095c0.013-0.089,0.03-0.267,0.017-0.446l-1.19-16.27c0-1.097-0.702-2.379-2.682-2.379h-1.023   c-0.327,0-1.323,0-2.036,0.715c-0.243,0.243-0.649,0.769-0.642,1.519l-0.351,4.828l-0.317-4.605c0-1.184-0.839-2.458-2.683-2.458   h-1.023c-0.776,0-1.478,0.274-1.978,0.773c-0.443,0.446-0.706,1.063-0.701,1.615l-0.379,5.484l-0.402-5.494   c0-1.097-0.702-2.379-2.682-2.379h-1.024c-0.327,0-1.322,0-2.036,0.716c-0.243,0.243-0.648,0.769-0.641,1.519L26.793,39.63   c-0.007,0.077-0.007,0.077-0.007,2.134c0,1.855,1.5,3.365,3.343,3.365h3.715c-0.419,18.342-0.371,28.034,0.129,29.54   C34.16,76.03,35.458,78,37.315,78h2.048c1.926,0,3.05-1.904,3.247-2.97c0.765-2.121,0.855-12.179,0.269-29.901h3.558   c0.893,0,1.733-0.351,2.365-0.989c0.631-0.637,0.979-1.482,0.978-2.386L49.758,40.095z" fill-opacity="0.07" stroke-opacity="0.07"/>
<path d="M49.263,40.028c0.006-0.043,0.024-0.195,0.013-0.343l-1.191-16.306c0-0.441-0.157-1.879-2.182-1.879h-1.023   c-0.305,0-1.115,0-1.683,0.569c-0.188,0.188-0.501,0.598-0.497,1.202l-0.863,11.877l-0.803-11.69c0-0.974-0.675-1.958-2.183-1.958   h-1.023c-0.643,0-1.219,0.222-1.623,0.626c-0.356,0.358-0.56,0.844-0.557,1.297l-0.865,12.491l-0.916-12.535   c0-0.441-0.157-1.879-2.182-1.879h-1.024c-0.305,0-1.114,0-1.682,0.569c-0.188,0.188-0.501,0.599-0.496,1.202l-1.192,16.404   c-0.005,0.055-0.005,0.055-0.005,2.09c0,1.58,1.275,2.865,2.843,2.865h4.227c-0.424,18.35-0.38,28.459,0.113,29.971   c0.143,1.04,1.217,2.899,2.847,2.899h2.048c1.735,0,2.642-1.852,2.762-2.601c0.949-2.44,0.659-17.687,0.237-30.27h4.075   c1.568,0,2.844-1.286,2.843-2.87L49.263,40.028z" fill-opacity="0.1" stroke-opacity="0.1"/>
<path d="M48.768,39.958c0.009-0.063,0.016-0.159,0.009-0.236l-1.192-16.343c0-0.515-0.218-1.379-1.682-1.379h-1.023   c-0.271,0-0.908,0-1.329,0.422c-0.162,0.162-0.354,0.453-0.352,0.884l-1.033,14.207h-0.668l-0.964-14.056   c0-0.672-0.44-1.458-1.683-1.458h-1.023c-0.509,0-0.96,0.17-1.269,0.479c-0.267,0.268-0.413,0.627-0.412,0.979l-0.974,14.056   h-0.775l-1.031-14.135c0-0.515-0.218-1.379-1.682-1.379h-1.024c-0.271,0-0.907,0-1.328,0.422c-0.162,0.162-0.354,0.453-0.352,0.885   l-1.193,16.41c-0.002,0.029-0.003,0.032-0.003,2.048c0,1.304,1.051,2.365,2.343,2.365h4.738   c-0.436,18.612-0.397,28.866,0.096,30.403C35.082,75.394,35.994,77,37.315,77h2.048c1.419,0,2.177-1.598,2.296-2.282   c0.976-2.51,0.545-20.003,0.186-30.588h4.592c1.292,0,2.344-1.061,2.344-2.367L48.768,39.958z" fill-opacity="0.15" stroke-opacity="0.15"/>
<path d="M48.272,39.887c0.005-0.038,0.009-0.094,0.006-0.129l-1.194-16.379c0-0.879-0.858-0.879-1.182-0.879h-1.023   c-0.324,0-1.184,0-1.182,0.843l-1.066,14.671h-1.6l-0.998-14.556c0-0.288-0.115-0.958-1.183-0.958h-1.023   c-0.708,0-1.183,0.413-1.182,0.993L35.64,38.014h-1.707l-1.066-14.635c0-0.879-0.858-0.879-1.182-0.879h-1.024   c-0.323,0-1.183,0-1.181,0.843l-1.193,16.415c-0.001,0.012-0.001,2.007-0.001,2.007c0,1.028,0.827,1.865,1.843,1.865h5.25   c-0.312,13.188-0.54,28.875,0.08,30.834c0.085,0.616,0.813,2.036,1.857,2.036h2.048c1.173,0,1.746-1.515,1.83-1.964   c0.989-2.542,0.439-22.054,0.134-30.907h5.109c1.017,0,1.844-0.836,1.844-1.865L48.272,39.887z" fill-opacity="0.15" stroke-opacity="0.15"/>
<path d="M46.584,22.379c0-0.377-0.305-0.379-0.682-0.379h-1.023c-0.377,0-0.684,0.001-0.684,0.379l-1.1,15.135   h-2.531l-1.031-15.056c0-0.376-0.305-0.458-0.683-0.458h-1.023c-0.378,0-0.683,0.151-0.683,0.527l-1.039,14.986h-2.638   l-1.101-15.135c0-0.377-0.306-0.379-0.682-0.379h-1.024c-0.376,0-0.683,0.001-0.683,0.379l-1.193,16.415   c0,0.015,0.004,0.027,0.004,0.041c0,0.015-0.004,0.028-0.004,0.043v1.887c0,0.754,0.602,1.365,1.343,1.365h5.762   c-0.177,7.381-0.652,29.753,0.059,31.225c0,0.341,0.611,1.646,1.365,1.646h2.048c0.753,0,1.255-1.108,1.364-1.646   c0.997-2.563,0.33-24.154,0.082-31.225h5.627c0.742,0,1.344-0.611,1.344-1.365v-1.887c0-0.015-0.004-0.028-0.004-0.043   c0-0.014,0.004-0.026,0.004-0.041L46.584,22.379z" fill="#FFFFFF"/>
<path d="M64.469,48.16c3.722-2.851,6.236-12.978,4.826-19.653c-1.09-5.163-4.166-8.007-8.662-8.007h-0.911   c-3.333,0-4.222,2.147-4.222,3.416v50.158c0,1.992,1.948,4.427,4.222,4.427h3.186c0.23,0,0.462-0.032,0.693-0.098   c3.609-1.041,3.383-5.786,1.813-19.096C64.695,53.203,64.379,49.457,64.469,48.16z" fill-opacity="0.05" stroke-opacity="0.05"/>
<path d="M63.994,47.888c3.664-2.533,6.215-12.635,4.812-19.277C67.77,23.703,64.866,21,60.633,21h-0.911   C56.104,21,56,23.617,56,23.916v50.158C56,75.804,57.752,78,59.722,78h3.186c0.186,0,0.371-0.026,0.555-0.078   c3.22-0.929,2.957-5.819,1.456-18.543C64.627,56.902,63.764,49.563,63.994,47.888z" fill-opacity="0.07" stroke-opacity="0.07"/>
<path d="M63.545,47.584c3.59-2.204,6.165-12.277,4.771-18.871c-0.982-4.652-3.712-7.214-7.684-7.214h-0.911   c-3.066,0-3.222,2.012-3.222,2.416v50.158c0,1.496,1.563,3.427,3.222,3.427h3.186c0.139,0,0.278-0.02,0.416-0.059   c2.834-0.817,2.533-5.838,1.1-17.99C64.079,56.528,63.185,48.929,63.545,47.584z" fill-opacity="0.1" stroke-opacity="0.1"/>
<path d="M63.142,47.24c3.485-1.888,6.06-11.923,4.686-18.423C66.898,24.421,64.343,22,60.633,22h-0.911   C57.196,22,57,23.466,57,23.916v50.158C57,75.324,58.346,77,59.722,77h3.186c0.092,0,0.185-0.013,0.277-0.039   c2.452-0.707,2.11-5.853,0.745-17.425C63.465,55.587,62.605,48.298,63.142,47.24z" fill-opacity="0.15" stroke-opacity="0.15"/>
<path d="M62.802,46.853c3.34-1.617,5.878-11.585,4.536-17.932c-0.875-4.141-3.256-6.421-6.705-6.421h-0.911   c-2.005,0-2.222,0.99-2.222,1.416v50.158c0,1.002,1.149,2.427,2.222,2.427h3.186c0.047,0,0.094-0.007,0.139-0.02   c2.146-0.618,1.578-6.791,0.388-16.886C62.841,54.564,62.032,47.703,62.802,46.853z" fill-opacity="0.15" stroke-opacity="0.15"/>
<path d="M62.52,45.432C67.092,43.409,71.029,22,60.633,22h-0.911C58.97,22,58,22.162,58,22.916v50.158   C58,73.826,58.97,75,59.722,75h3.186C66.381,74,60.234,47.307,62.52,45.432z" fill="#FFFFFF"/>
</g>
</svg>
